<!DOCTYPE svg PUBLIC "-//W3C//DTD SVG 20010904//EN" "http://www.w3.org/TR/2001/REC-SVG-20010904/DTD/svg10.dtd">
<svg version="1.0" xmlns="http://www.w3.org/2000/svg" width="40px" height="40px" viewBox="0 0 500 500" preserveAspectRatio="xMidYMid meet">
 <g id="layer101" fill="#3385d9" stroke="none">
  <path d="M173.4 433.2 c-0.6 -0.4 -3.6 -5.1 -6.8 -10.4 -3.1 -5.4 -6.1 -10 -6.6 -10.3 -0.6 -0.4 -1 3.4 -1 9.9 l0 10.6 -3.5 0 -3.5 0 0.2 -19.2 0.3 -19.3 2.5 -0.3 c2.3 -0.3 3.3 1.1 10.5 13.8 4.4 7.7 8.6 13.9 9.3 13.7 0.7 -0.1 4.7 -6.3 9 -13.7 5 -8.6 8.5 -13.6 9.7 -13.9 3.9 -0.7 4.5 2.3 4.5 21.1 l0 17.8 -3.5 0 -3.5 0 0 -10.6 c0 -7.4 -0.3 -10.5 -1.1 -10.2 -0.7 0.2 -3.7 4.8 -6.8 10.2 -5.7 9.8 -7.8 12.1 -9.7 10.8z"/>
  <path d="M21.8 431.4 c-1.5 -0.8 -3.2 -2.3 -3.8 -3.4 -1.5 -2.7 -1.3 -31.3 0.2 -32.8 0.8 -0.8 6.2 -1.2 17.5 -1.2 l16.3 0 0 3.5 0 3.5 -14 0 -14.1 0 0.3 12.3 0.3 12.2 13.8 0.3 13.7 0.3 0 3.4 0 3.5 -13.7 0 c-10.2 -0.1 -14.5 -0.5 -16.5 -1.6z"/>
  <path d="M61.6 427.3 c2.6 -3.2 6.3 -7.5 8.2 -9.6 3.8 -4.4 4.2 -3.1 -4.7 -13.7 -3 -3.6 -6.1 -7.3 -6.9 -8.2 -1.4 -1.7 -1.2 -1.8 2.9 -1.8 4.2 0 4.7 0.3 9.9 6.5 3 3.5 6 6.5 6.5 6.5 0.6 0 3.7 -2.9 7 -6.6 5.8 -6.3 6.2 -6.5 10.2 -6.2 l4.2 0.3 -8 9.3 c-4.4 5.1 -7.9 9.7 -7.7 10.2 0.2 0.5 3.8 5 8.1 10 l7.8 9 -4.3 0 c-4 0.1 -4.7 -0.4 -10.6 -6.7 l-6.2 -6.8 -6.3 6.8 c-5.8 6.4 -6.4 6.7 -10.6 6.7 l-4.3 0 4.8 -5.7z"/>
  <path d="M104 421.7 c0 -6.1 0.4 -12.8 1 -14.6 1.1 -4 5.2 -8.6 9.5 -10.8 4 -2.1 24.8 -3.1 27 -1.3 1.2 1 1.5 4.4 1.5 19.6 l0 18.4 -3.5 0 -3.5 0 0 -5 0 -5.1 -12.7 0.3 -12.8 0.3 -0.3 4.8 c-0.3 4.5 -0.5 4.7 -3.3 4.7 l-2.9 0 0 -11.3z m31.8 -12.9 l-0.3 -7.3 -7.5 0 c-4.2 0.1 -9 0.7 -10.7 1.4 -3.4 1.4 -6.3 6.2 -6.3 10.5 l0 2.6 12.5 0 12.6 0 -0.3 -7.2z"/>
  <path d="M225 417.5 c0 -18.6 0.7 -20.8 7.3 -22.6 6.1 -1.6 22.8 -0.7 26.2 1.5 5.2 3.4 7.1 13.4 3.9 20.1 -2.3 5 -6.5 6.5 -17.8 6.5 l-9.6 0 0 -2.9 0 -2.9 9.5 -0.4 c7.4 -0.2 9.8 -0.7 11.2 -2.1 2.4 -2.4 2.3 -8.9 -0.2 -11.7 -1.7 -1.9 -2.8 -2 -12.4 -1.8 l-10.6 0.3 -0.3 15.8 -0.3 15.7 -3.4 0 -3.5 0 0 -15.5z"/>
  <path d="M270.2 420.3 c0.4 -13.1 1.1 -15.6 5.2 -20.1 3.9 -4.4 7.5 -5.5 19.3 -6 8.2 -0.3 11.7 -0.1 12.8 0.8 1.2 1 1.5 4.4 1.5 19.6 l0 18.4 -3.5 0 -3.5 0 0 -5 0 -5 -12.5 0 -12.5 0 0 5 0 5 -3.6 0 -3.6 0 0.4 -12.7z m31.8 -11.8 l0 -7.5 -5.2 0 c-13.2 0.2 -18.8 3.4 -18.8 11.1 l0 3.9 12 0 12 0 0 -7.5z"/>
  <path d="M319 431 c-0.6 -1.2 -0.9 -8.5 -0.8 -19.2 l0.3 -17.3 3.3 -0.3 3.2 -0.3 0 16 0 16.1 14.5 0 14.5 0 0 3.5 0 3.5 -17 0 c-15.8 0 -17 -0.1 -18 -2z"/>
  <path d="M359.2 420.3 c0.2 -7.9 0.9 -13.8 1.7 -15.3 2 -3.7 5.2 -7 8.5 -8.7 3.2 -1.7 21.6 -3 26 -1.9 l2.6 0.6 0 19 0 19 -2.9 0 c-2.8 0 -3 -0.2 -3.3 -4.7 l-0.3 -4.8 -12.7 -0.3 -12.8 -0.3 0 5.1 0 5 -3.6 0 -3.6 0 0.4 -12.7z m31.8 -11.8 l0 -7.5 -5.2 0 c-13.2 0.2 -18.8 3.4 -18.8 11.1 l0 3.9 12 0 12 0 0 -7.5z"/>
  <path d="M411.8 431.4 c-1.5 -0.8 -3.2 -2.3 -3.8 -3.4 -1.3 -2.4 -1.3 -25 0 -28.5 1.6 -4.3 6.3 -5.5 21 -5.5 l13 0 0 3.5 0 3.4 -13.7 0.3 -13.8 0.3 0 12 0 12 13.8 0.3 13.7 0.3 0 3.4 0 3.5 -13.7 0 c-10.2 -0.1 -14.5 -0.5 -16.5 -1.6z"/>
  <path d="M455.4 432 c-4.8 -1.9 -5.4 -4.4 -5.4 -21.1 0 -13.4 0.2 -15.8 1.6 -16.3 0.9 -0.3 8.7 -0.6 17.5 -0.6 l15.9 0 0 3.5 0 3.5 -14.5 0 -14.5 0 0 10.9 c0 6 0.3 11.6 0.6 12.5 0.5 1.4 2.8 1.6 14.5 1.6 l13.9 0 0 3.5 0 3.5 -13.7 -0.1 c-7.6 0 -14.8 -0.4 -15.9 -0.9z"/>
  <path d="M27 413.5 l0 -3.5 11 0 11 0 0 3.5 0 3.5 -11 0 -11 0 0 -3.5z"/>
  <path d="M459.5 416 c-0.4 -0.6 -0.4 -2.2 -0.1 -3.6 0.6 -2.4 0.8 -2.4 11.7 -2.4 l11 0 -0.3 3.3 -0.3 3.2 -10.7 0.3 c-6.9 0.2 -10.9 -0.1 -11.3 -0.8z"/>
  <path d="M227.5 360.5 c-11.8 -1.5 -25.7 -5.3 -37.5 -10.2 -19.1 -7.8 -33.2 -17.4 -49.1 -33.2 -21.1 -21.1 -33.9 -44.5 -41 -75.1 -3.4 -14.7 -3.9 -41.8 -0.9 -57 6.8 -35.7 23.4 -65.4 48.9 -87.7 41.3 -36.1 98.5 -47.3 149.7 -29.2 21.5 7.6 39.8 19.2 56.4 35.9 26.2 26.1 40.6 57.2 44.1 95.2 1 11.5 1 15.2 -0.5 27.6 -4.4 36.6 -18.8 66.5 -44.2 91.5 -33.2 32.7 -79.4 48.2 -125.9 42.2z m29.7 -38.5 c5.7 -1.6 11.9 -6.9 15 -12.9 2.3 -4.3 2.8 -6.6 2.8 -12 -0.1 -11 -5.3 -19 -15.7 -23.8 l-5.3 -2.4 0 -7.3 c0 -8 -1.7 -11.6 -5.4 -11.6 -4.8 0 -6.1 2.2 -6.4 11.3 l-0.4 8.4 -4 1.8 c-15.5 6.8 -19.8 27.7 -8.4 41.2 5.9 7 17.7 10.1 27.8 7.3z m-69.6 -15.5 c14.5 -4.3 22.6 -21.7 16.3 -35.4 l-2 -4.5 5.6 -5.6 c3.9 -3.9 5.5 -6.3 5.5 -8.2 0 -2.7 -3.1 -5.8 -5.8 -5.8 -0.8 0 -4.2 2.7 -7.7 6.1 l-6.3 6 -3.4 -1.7 c-4.2 -2.2 -14.9 -2.3 -19.9 -0.2 -2 0.9 -5.5 3.2 -7.7 5.2 -14.5 13.2 -9.6 37.3 9 43.7 6.5 2.2 10 2.3 16.4 0.4z m138 0 c18 -5.3 24.5 -29.2 11.6 -42.8 -7.3 -7.7 -21 -10.4 -29.8 -5.9 l-4.1 2.1 -4.4 -4.5 c-5.7 -5.9 -9.3 -7.8 -11.9 -6.4 -1.8 0.9 -4 4 -4 5.5 0 0.3 2.7 3.5 6 7 l6 6.5 -1.5 3.7 c-2.3 5.5 -2.1 15.4 0.4 20.6 3 6.2 9.1 11.7 15.3 13.8 6.5 2.2 10 2.3 16.4 0.4z m-44.9 -63.8 c1.7 -1.7 1.8 -4 1.5 -29.5 -0.3 -23.6 -0.6 -28 -1.9 -29.4 -1.5 -1.6 -4.3 -1.8 -31.3 -1.8 -27 0 -29.8 0.2 -31.2 1.8 -1.3 1.4 -1.7 6.6 -2.3 28.4 -0.7 28.2 -0.5 30 3.8 31.8 1.2 0.5 15.1 0.8 30.9 0.7 26.2 -0.2 28.9 -0.4 30.5 -2z m-105.1 -6.1 c5.8 -2.7 11.5 -8.9 13.4 -14.6 l1.3 -4 8 0 c8.7 0 11.7 -1.4 11.7 -5.3 0 -4.3 -2.7 -5.7 -11.4 -5.7 l-8.1 0 -2.9 -5.5 c-10.4 -19.9 -38.3 -19 -47.5 1.5 -5.6 12.4 0.6 28.3 13.2 34.1 6.1 2.7 15.8 2.5 22.3 -0.5z m166.6 1.2 c5 -1.5 12.2 -7.8 15.1 -13.2 2.9 -5.4 3.1 -17.4 0.3 -22.6 -6.4 -12.2 -19.9 -17.7 -32.7 -13.5 -6.6 2.2 -13.9 9.2 -15.8 15.3 l-1.4 4.2 -7.9 0 c-6.5 0 -8.1 0.3 -9.8 2 -2.3 2.3 -2.6 4.9 -0.7 7.3 0.9 1.3 3.2 1.7 9.7 1.9 l8.5 0.3 1.8 4 c5.7 12.2 19.6 18.3 32.9 14.3z m-44.1 -64.5 l5.9 -5.6 5.1 1.6 c6.4 2.1 10.1 2.1 16.8 0.1 14.8 -4.4 22.5 -22.2 15.5 -36.2 -4.6 -9.3 -12.7 -14.1 -23.4 -14.2 -7.5 0 -14.8 2.9 -19.2 7.6 -6.8 7.3 -9.1 20.3 -4.9 28.6 l2.1 4.3 -5.6 5.6 c-6.1 6.2 -7.3 10.1 -3.8 12.6 3.1 2.3 5.4 1.4 11.5 -4.4z m-85.9 3 c3.3 -2.9 2.2 -6.3 -3.8 -12.4 l-5.7 -5.7 1.7 -4.1 c0.9 -2.3 1.6 -6.7 1.6 -9.9 -0.1 -14.4 -11.2 -25.2 -26 -25.2 -23.1 0 -35 27 -19.2 43.3 7.9 8.2 17.2 10.4 28.1 6.8 l6.3 -2.2 5.8 5.6 c6.2 5.8 8.2 6.5 11.2 3.8z m41.6 -3.6 c0.8 -0.6 1.2 -3.8 1.2 -9.3 l0 -8.3 4.3 -1.9 c6.3 -2.8 10.3 -6.6 13.3 -12.7 4.6 -9.5 2.6 -21.8 -4.8 -29.4 -16.2 -16.6 -45 -5.3 -45 17.6 0 11.4 6.5 21 16.9 24.9 l4.3 1.7 0 7.6 c0 8.1 0.4 9.2 3.4 10.8 2 1.1 4.1 0.8 6.4 -1z"/>
  <path d="M242 310.2 c-10 -5 -10.7 -19.5 -1.2 -25.4 10.3 -6.4 24 1.6 22.9 13.3 -1 11 -11.8 17.1 -21.7 12.1z"/>
  <path d="M176.2 296 c-9.1 -2.1 -14.1 -13.8 -9.2 -21.8 8.2 -13.4 29.2 -6.8 27.7 8.7 -1 9 -9.6 15.1 -18.5 13.1z"/>
  <path d="M314 295.8 c-9.3 -2.6 -13.9 -13.6 -9 -21.6 6.9 -11.3 24.7 -8.7 27.5 3.9 1.6 7 -3.2 15.9 -9.3 17.3 -1.5 0.4 -3.4 0.9 -4.2 1 -0.8 0.2 -3.1 0 -5 -0.6z"/>
  <path d="M241.6 216.5 c-3 -1.5 -3.3 -5.9 -0.4 -7.9 3 -2.1 12.6 -2.1 15.6 0 2.5 1.7 2.9 5.6 0.8 7.3 -1.8 1.6 -13.3 1.9 -16 0.6z"/>
  <path d="M157 226.1 c-4.2 -2.2 -8 -8.3 -8 -12.9 0 -6.5 5.9 -13.5 12.6 -14.8 4.8 -0.9 11.8 1.9 14.6 5.8 3.3 4.7 3.6 12.4 0.6 16.8 -4.4 6.6 -12.9 8.8 -19.8 5.1z"/>
  <path d="M327 226.2 c-7.5 -3.7 -10.4 -13.8 -6 -20.9 4.2 -6.9 14.7 -9.2 20.9 -4.6 6.8 5.1 8.6 11.7 5.1 18.8 -3.7 7.6 -12.4 10.6 -20 6.7z"/>
  <path d="M313.5 158.9 c-4 -1.2 -5.8 -2.8 -8.4 -6.9 -5.9 -9.8 1.3 -22 13 -22 11.4 0 18.8 12.9 12.7 22 -4.4 6.4 -10.9 9 -17.3 6.9z"/>
  <path d="M175.5 159 c-1.7 -0.5 -4.6 -2.5 -6.4 -4.4 -4.5 -4.6 -5.4 -12.2 -2.2 -17.4 8.4 -13.3 29.3 -6.8 27.8 8.7 -1 9.4 -10.3 15.8 -19.2 13.1z"/>
  <path d="M242.1 142.2 c-4.8 -2.4 -7.3 -6.2 -7.8 -11.9 -0.3 -3.5 0.1 -5.8 1.5 -8.3 2.2 -4.1 8.4 -8 12.6 -8 5 0 11 3.6 13.5 8.1 7.2 12.7 -6.7 26.8 -19.8 20.1z"/>
</g>
 <g id="layer102" fill="#fdfeff" stroke="none">
  <path d="M135.2 409.3 l-0.2 -7.2 -6.2 -0.4 -6.3 -0.3 6.3 -0.2 c7.3 -0.2 7.4 -0.1 6.9 8.9 l-0.3 6.4 -0.2 -7.2z"/>
  <path d="M292.8 401.3 c1.7 -0.2 4.7 -0.2 6.5 0 1.7 0.2 0.3 0.4 -3.3 0.4 -3.6 0 -5 -0.2 -3.2 -0.4z"/>
  <path d="M381.8 401.3 c1.7 -0.2 4.7 -0.2 6.5 0 1.7 0.2 0.3 0.4 -3.3 0.4 -3.6 0 -5 -0.2 -3.2 -0.4z"/>
  <path d="M237.2 320.4 c-9.3 -4.6 -14.2 -12.7 -14.2 -23.4 0 -10.6 5.6 -19.5 14.8 -23.5 l4 -1.8 0.4 -8.4 c0.3 -9.1 1.6 -11.3 6.4 -11.3 3.7 0 5.4 3.6 5.4 11.6 l0 7.3 5.3 2.4 c10.4 4.8 15.6 12.8 15.7 23.8 0 5.4 -0.5 7.7 -2.8 12 -6.6 12.6 -22.2 17.7 -35 11.3z m18.2 -9.8 c7.5 -3.1 10.9 -14 6.4 -20.5 -3.7 -5.4 -7.2 -7.5 -12.6 -7.5 -6 0 -11.4 3.1 -13.6 7.8 -6.1 12.9 6.5 25.8 19.8 20.2z"/>
  <path d="M171.2 306.1 c-18.6 -6.4 -23.5 -30.5 -9 -43.7 2.2 -2 5.7 -4.3 7.7 -5.2 5 -2.1 15.7 -2 19.9 0.2 l3.4 1.7 6.3 -6 c3.5 -3.4 6.9 -6.1 7.7 -6.1 2.7 0 5.8 3.1 5.8 5.8 0 1.9 -1.6 4.3 -5.5 8.2 l-5.6 5.6 2 4.5 c6.3 13.7 -1.8 31.1 -16.3 35.4 -6.4 1.9 -9.9 1.8 -16.4 -0.4z m16.2 -12 c9.5 -5.3 9.9 -18.7 0.7 -24.8 -9.4 -6.3 -23.1 0.8 -23.1 12 0 11.8 12 18.7 22.4 12.8z"/>
  <path d="M309.2 306.1 c-6.2 -2.1 -12.3 -7.6 -15.3 -13.8 -2.5 -5.2 -2.7 -15.1 -0.4 -20.6 l1.5 -3.7 -6 -6.5 c-3.3 -3.5 -6 -6.7 -6 -7 0 -1.5 2.2 -4.6 4 -5.5 2.6 -1.4 6.2 0.5 11.9 6.4 l4.4 4.5 4.1 -2.1 c8.8 -4.5 22.5 -1.8 29.8 5.9 12.9 13.6 6.4 37.5 -11.6 42.8 -6.4 1.9 -9.9 1.8 -16.4 -0.4z m14 -10.7 c3.7 -0.8 8.5 -6.5 9.3 -10.8 1.9 -9.7 -4.8 -17.6 -14.7 -17.6 -13.7 0 -19.8 16.3 -9.6 25.7 2.5 2.3 8.3 4.3 10.8 3.7 0.8 -0.1 2.7 -0.6 4.2 -1z"/>
  <path d="M219.3 244 c-4.3 -1.8 -4.5 -3.6 -3.8 -31.8 0.6 -21.8 1 -27 2.3 -28.4 1.4 -1.6 4.2 -1.8 31.2 -1.8 27 0 29.8 0.2 31.3 1.8 1.3 1.4 1.6 5.8 1.9 29.4 0.3 25.5 0.2 27.8 -1.5 29.5 -1.6 1.6 -4.3 1.8 -30.5 2 -15.8 0.1 -29.7 -0.2 -30.9 -0.7z m38.3 -28.1 c2.1 -1.7 1.7 -5.6 -0.8 -7.3 -3 -2.1 -12.6 -2.1 -15.6 0 -2.9 2 -2.6 6.4 0.4 7.9 2.7 1.3 14.2 1 16 -0.6z"/>
  <path d="M153.3 237.1 c-12.6 -5.8 -18.8 -21.7 -13.2 -34.1 9.2 -20.5 37.1 -21.4 47.5 -1.5 l2.9 5.5 8.1 0 c8.7 0 11.4 1.4 11.4 5.7 0 3.9 -3 5.3 -11.7 5.3 l-8 0 -1.3 4 c-1.9 5.7 -7.6 11.9 -13.4 14.6 -6.5 3 -16.2 3.2 -22.3 0.5z m17.7 -10.9 c5.5 -2.7 8.3 -7.7 7.8 -13.8 -0.6 -6.6 -3.5 -10.8 -9.3 -12.9 -5.5 -2.1 -10.3 -1.4 -14.5 2.2 -6.3 5.2 -7.6 11.9 -3.7 18.7 4 7 12.4 9.5 19.7 5.8z"/>
  <path d="M322.5 236.6 c-5.8 -2.7 -10.5 -7.5 -13.2 -13.1 l-1.8 -4 -8.5 -0.3 c-6.5 -0.2 -8.8 -0.6 -9.7 -1.9 -1.9 -2.4 -1.6 -5 0.7 -7.3 1.7 -1.7 3.3 -2 9.8 -2 l7.9 0 1.4 -4.2 c1.9 -6.1 9.2 -13.1 15.8 -15.3 12.8 -4.2 26.3 1.3 32.7 13.5 2.8 5.2 2.6 17.2 -0.3 22.6 -2.9 5.4 -10.1 11.7 -15.1 13.2 -6.4 1.9 -14.1 1.5 -19.7 -1.2z m18.4 -10.6 c7.5 -3.8 10.2 -14.4 5.3 -20.9 -5 -6.7 -12.2 -8.7 -19.1 -5.2 -5.3 2.8 -8.1 7.2 -8.1 13.2 0 11.3 11.6 18.2 21.9 12.9z"/>
  <path d="M286.6 177.7 c-3.5 -2.5 -2.3 -6.4 3.8 -12.6 l5.6 -5.6 -2.1 -4.3 c-4.2 -8.3 -1.9 -21.3 4.9 -28.6 4.4 -4.7 11.7 -7.6 19.2 -7.6 10.7 0.1 18.8 4.9 23.4 14.2 7 14 -0.7 31.8 -15.5 36.2 -6.7 2 -10.4 2 -16.8 -0.1 l-5.1 -1.6 -5.9 5.6 c-6.1 5.8 -8.4 6.7 -11.5 4.4z m39.4 -20.6 c6.6 -4.7 8.7 -12.3 5.2 -19.1 -6.8 -13.6 -28.2 -8.7 -28.2 6.5 0 4 2.8 9.8 5.9 12.2 4.5 3.5 12.5 3.7 17.1 0.4z"/>
  <path d="M201 172.5 l-5.8 -5.6 -6.3 2.2 c-10.9 3.6 -20.2 1.4 -28.1 -6.8 -12 -12.4 -8.3 -32.9 7.4 -40.7 10.3 -5.1 24.5 -2.5 31.4 5.7 6.3 7.4 8.2 18.2 4.8 26.8 l-1.7 4.1 5.7 5.7 c6 6.1 7.1 9.5 3.8 12.4 -3 2.7 -5 2 -11.2 -3.8z m-13.1 -15.4 c4.1 -2.9 6.3 -6.6 6.8 -11.2 1.5 -15.5 -19.4 -22 -27.8 -8.7 -3.2 5.2 -2.3 12.8 2.2 17.4 5.4 5.5 13.2 6.6 18.8 2.5z"/>
  <path d="M247.4 173.7 c-3 -1.6 -3.4 -2.7 -3.4 -10.8 l0 -7.6 -4.3 -1.7 c-10.4 -3.9 -16.9 -13.5 -16.9 -24.9 0 -22.9 28.8 -34.2 45 -17.6 4.6 4.7 6.6 9.5 7 17.2 0.4 5.8 0 7.5 -2.2 12.2 -3 6.1 -7 9.9 -13.3 12.7 l-4.3 1.9 0 8.3 c0 5.5 -0.4 8.7 -1.2 9.3 -2.3 1.8 -4.4 2.1 -6.4 1z m8.2 -31.3 c11 -5.2 10.9 -21.1 -0.1 -26.4 -5.3 -2.6 -9.1 -2.5 -13.9 0.3 -5.3 3 -7.8 7.9 -7.3 14 0.5 5.7 3 9.5 7.8 11.9 4.3 2.2 9.1 2.3 13.5 0.2z"/>
</g>

</svg>